<?xml version="1.0" encoding="UTF-8" standalone="no"?>
<!-- Created with Inkscape (http://www.inkscape.org/) -->

<svg
   version="1.1"
   id="svg1"
   width="981.33331"
   height="736"
   viewBox="0 0 981.33331 736"
   sodipodi:docname="dog-filled-shape.svg"
   inkscape:version="1.3 (0e150ed, 2023-07-21)"
   xmlns:inkscape="http://www.inkscape.org/namespaces/inkscape"
   xmlns:sodipodi="http://sodipodi.sourceforge.net/DTD/sodipodi-0.dtd"
   xmlns="http://www.w3.org/2000/svg"
   xmlns:svg="http://www.w3.org/2000/svg">
  <defs
     id="defs1" />
  <sodipodi:namedview
     id="namedview1"
     pagecolor="#505050"
     bordercolor="#ffffff"
     borderopacity="1"
     inkscape:showpageshadow="0"
     inkscape:pageopacity="0"
     inkscape:pagecheckerboard="1"
     inkscape:deskcolor="#505050"
     inkscape:zoom="0.32065217"
     inkscape:cx="358.64407"
     inkscape:cy="304.0678"
     inkscape:window-width="1800"
     inkscape:window-height="1098"
     inkscape:window-x="0"
     inkscape:window-y="71"
     inkscape:window-maximized="0"
     inkscape:current-layer="g1" />
  <g
     inkscape:groupmode="layer"
     inkscape:label="Image"
     id="g1">
    <path
       style="fill:#000000"
       d="m 351.66101,528.91101 v -29.5686 l 6.53115,-6.90573 c 3.59214,-3.79815 8.2095,-10.15612 10.26081,-14.12883 3.69387,-7.15378 3.73676,-7.52379 4.46885,-38.55643 l 0.73919,-31.33334 4.1606,-7.3404 4.16061,-7.3404 -5.31651,-3.32627 c -8.5886,-5.37344 -21.53803,-20.34929 -26.78199,-30.97303 -11.86355,-24.03436 -11.76771,-51.74971 0.26048,-75.3269 1.54662,-3.03164 3.34817,-5.84341 4.00344,-6.24839 0.65537,-0.40505 1.27709,3.97825 1.38184,9.74248 0.65029,35.78164 23.1922,65.26766 58.7982,76.91116 6.5006,2.12575 14.97936,2.49774 74.66666,3.27588 75.48828,0.98413 73.60898,0.7623 95.33334,11.25321 16.86863,8.14604 28.2484,18.22312 43.01552,38.09137 6.79187,9.13804 15.05837,20.09937 18.36999,24.3585 l 6.02114,7.74387 -12.92757,13.16813 c -15.85198,16.14697 -20.4891,22.77084 -20.4498,29.21143 0.0891,14.59704 15.539,28.51438 33.73747,30.39081 5.6289,0.58038 7.51393,0.21443 10.23324,-1.98665 l 3.33334,-2.69808 0.40388,-30.07258 0.40389,-30.07258 4.26278,0.73945 c 18.13094,3.14514 27.87122,9.10048 37.81537,23.12083 9.5594,13.47789 11.73913,14.69026 26.44741,14.71015 6.6,0.009 14.24904,0.64081 16.99786,1.4042 9.33672,2.59294 11.34523,12.46529 5.75731,28.29867 -6.52832,18.498 -14.70235,27.09929 -29.36864,30.90374 -9.201,2.38674 -53.4872,2.90294 -66.48089,0.77489 -17.51469,-2.86848 -27.88052,-10.76978 -54.59644,-41.61586 l -13.64253,-15.75161 -9.87332,-0.006 c -9.27529,-0.006 -9.75236,0.13499 -7.87637,2.32699 8.2677,9.6604 39.46309,45.78639 42.31231,49 6.80136,7.67118 7.69806,7.3341 -19.48393,7.32424 l -25.07869,-0.009 -26,-28.7903 -26,-28.7903 -0.39175,-9.20061 -0.39174,-9.20061 -35.60826,0.002 -35.60825,0.002 -3.75626,5.94571 c -7.6215,12.06392 -23.01037,23.76449 -38.76086,29.47092 l -8.14954,2.95259 -0.22399,18.47968 -0.22399,18.47967 -23.44268,0.3641 -23.44268,0.3641 z m 346.66666,-27.82626 c 7.71244,-7.71243 -2.69017,-18.90412 -11.70332,-12.59106 -3.59552,2.5184 -3.9925,9.24388 -0.75669,12.81941 2.91146,3.21713 9.12847,3.10319 12.46001,-0.22835 z m -257.42979,49.66667 c -4.04047,-4.21667 -10.56192,-11.17615 -14.49209,-15.46552 l -7.14577,-7.79885 9.06572,-5.25937 c 15.62895,-9.06696 25.6669,-9.9518 33.93854,-2.99168 4.30011,3.61832 33.39673,37.06447 33.39673,38.38909 0,0.43614 -10.66878,0.79299 -23.7084,0.79299 H 448.2442 Z m 332.09646,-45.05609 v -4.72275 l 10.33333,0.38942 10.33333,0.38942 0.41782,4.33333 0.41781,4.33333 h -10.75115 -10.75114 z m -6.65623,-11.9328 -3.20961,-3.41647 10.56831,-10.63066 c 5.81256,-5.84686 11.23938,-10.63065 12.0596,-10.63065 0.82021,0 2.60233,1.22768 3.96025,2.72817 2.43772,2.69365 2.32574,2.87138 -8.84999,14.04712 l -11.31896,11.31895 z m -16.01044,-17.34445 v -10 h 4 4 v 10 10 h -4 -4 z"
       id="path477" />
  </g>
</svg>
