<?xml version="1.0" encoding="UTF-8" standalone="no"?>
<!-- Uploaded to: SVG Repo, www.svgrepo.com, Generator: SVG Repo Mixer Tools -->

<svg
   width="800px"
   height="800px"
   viewBox="0 0 24 24"
   fill="none"
   version="1.1"
   id="svg1"
   sodipodi:docname="fileSearch.svg"
   inkscape:version="1.3 (0e150ed, 2023-07-21)"
   xmlns:inkscape="http://www.inkscape.org/namespaces/inkscape"
   xmlns:sodipodi="http://sodipodi.sourceforge.net/DTD/sodipodi-0.dtd"
   xmlns="http://www.w3.org/2000/svg"
   xmlns:svg="http://www.w3.org/2000/svg">
  <defs
     id="defs1" />
  <sodipodi:namedview
     id="namedview1"
     pagecolor="#505050"
     bordercolor="#ffffff"
     borderopacity="1"
     inkscape:showpageshadow="0"
     inkscape:pageopacity="0"
     inkscape:pagecheckerboard="1"
     inkscape:deskcolor="#505050"
     inkscape:zoom="0.295"
     inkscape:cx="400"
     inkscape:cy="400"
     inkscape:window-width="1312"
     inkscape:window-height="449"
     inkscape:window-x="2148"
     inkscape:window-y="592"
     inkscape:window-maximized="0"
     inkscape:current-layer="svg1" />
  <path
     d="M13 3H8.2C7.0799 3 6.51984 3 6.09202 3.21799C5.71569 3.40973 5.40973 3.71569 5.21799 4.09202C5 4.51984 5 5.0799 5 6.2V17.8C5 18.9201 5 19.4802 5.21799 19.908C5.40973 20.2843 5.71569 20.5903 6.09202 20.782C6.51984 21 7.0799 21 8.2 21H12M13 3L19 9M13 3V7.4C13 7.96005 13 8.24008 13.109 8.45399C13.2049 8.64215 13.3578 8.79513 13.546 8.89101C13.7599 9 14.0399 9 14.6 9H19M19 9V11M9 17H11M9 13H13M9 9H10M19.2686 19.2686L21 21M20 17.5C20 18.8807 18.8807 20 17.5 20C16.1193 20 15 18.8807 15 17.5C15 16.1193 16.1193 15 17.5 15C18.8807 15 20 16.1193 20 17.5Z"
     stroke="#000000"
     stroke-width="2"
     stroke-linecap="round"
     stroke-linejoin="round"
     id="path1"
     style="fill:none;fill-opacity:1;stroke:#51878a;stroke-opacity:1" />
</svg>
